<?xml version="1.0" encoding="UTF-8" standalone="no"?>
<!DOCTYPE svg PUBLIC "-//W3C//DTD SVG 1.1//EN" "http://www.w3.org/Graphics/SVG/1.1/DTD/svg11.dtd">
<svg width="558" height="558" viewBox="0 0 558 447" version="1.1" xmlns="http://www.w3.org/2000/svg" xmlns:xlink="http://www.w3.org/1999/xlink" xml:space="preserve" xmlns:serif="http://www.serif.com/" style="fill-rule:evenodd;clip-rule:evenodd;stroke-linejoin:round;stroke-miterlimit:2;">
<path d="M 266.338 97.826 C 259.649 101.497, 251.999 105.885, 249.338 107.578 C 242.980 111.624, 218.224 126, 217.617 126 C 216.834 126, 204.634 133.253, 202.750 134.838 C 200.731 136.536, 200.454 140.054, 202.200 141.800 C 204.734 144.334, 208.411 142.947, 221.500 134.519 C 224.250 132.748, 231.361 128.753, 237.302 125.641 C 243.244 122.529, 249.319 119.124, 250.802 118.074 C 255.353 114.855, 278.437 101.708, 279.500 101.729 C 280.483 101.749, 293.351 109.136, 311.900 120.328 C 317.070 123.448, 321.688 126, 322.161 126 C 322.634 126, 327.726 128.908, 333.475 132.461 C 346.480 140.500, 351.345 143, 353.982 143 C 356.646 143, 358.597 138.983, 357.200 136.374 C 356.647 135.341, 349.063 130.474, 340.347 125.560 C 331.631 120.646, 317.116 112.209, 308.092 106.813 C 299.068 101.416, 291.243 97, 290.703 97 C 290.163 97, 287.527 95.650, 284.846 94 C 282.164 92.350, 279.639 91.034, 279.235 91.076 C 278.831 91.117, 273.027 94.155, 266.338 97.826 M 186.667 146.667 C 186.300 147.033, 186 148.833, 186 150.667 C 186 153.633, 185.697 154.002, 183.250 154.015 C 181.738 154.024, 179.966 154.370, 179.313 154.786 C 177.256 156.093, 175.974 160.985, 176.623 165.045 C 177.188 168.578, 177.003 169.048, 174.710 169.920 C 172.063 170.927, 170.383 174.193, 171.545 176.074 C 171.916 176.674, 172.382 185.656, 172.579 196.034 C 173.169 227.046, 177.166 248.401, 184.587 260.180 C 191.121 270.550, 196.103 281.211, 197.681 288.200 C 198.561 292.094, 200.053 296.053, 200.997 296.997 C 202.126 298.126, 205.216 298.960, 210.028 299.434 C 219.311 300.349, 240.795 299.121, 241.771 297.620 C 242.172 297.004, 242.725 289.869, 243 281.764 L 243.500 267.029 247.007 263.524 C 251.437 259.097, 259.503 256.222, 270.226 255.247 L 278.500 254.495 278.380 250.679 C 278.290 247.811, 277.438 246.015, 274.952 243.450 C 269.673 238.004, 267.214 237.617, 242.478 238.336 C 219.084 239.017, 215.330 238.589, 211.245 234.774 C 204.959 228.904, 204.105 223.963, 203.052 187.392 C 202.260 159.864, 202.007 156.934, 200.106 153.208 C 198.962 150.966, 197.021 148.427, 195.791 147.566 C 193.537 145.987, 187.902 145.432, 186.667 146.667 M 362.813 147.933 C 357.690 151.962, 356.953 156.045, 356.414 183.384 C 355.888 210.117, 354.808 221.939, 352.328 228.138 C 350.550 232.582, 344.929 237.911, 341.715 238.198 C 340.497 238.307, 328.402 238.419, 314.837 238.448 C 291.427 238.497, 290.030 238.606, 287.337 240.592 C 283.252 243.604, 279.860 249.013, 280.204 251.966 C 280.485 254.368, 280.911 254.537, 288.367 255.213 C 300.393 256.303, 306.332 258.393, 311.517 263.361 L 316 267.657 316 281.637 C 316 291.595, 316.377 296.134, 317.312 297.412 C 318.476 299.004, 320.529 299.222, 335.562 299.353 C 344.878 299.434, 353.729 299.156, 355.232 298.736 C 358.433 297.840, 360.505 294.218, 361.279 288.165 C 361.892 283.364, 368.525 268.800, 372.429 263.682 C 381.065 252.360, 385.689 230.714, 386.675 197 C 386.956 187.375, 387.257 177.718, 387.343 175.541 C 387.474 172.239, 387.085 171.373, 385 170.322 C 382.744 169.185, 382.500 168.467, 382.500 162.951 C 382.500 156.137, 380.917 154, 375.869 154 C 373.415 154, 373.087 153.598, 372.810 150.250 C 372.520 146.745, 372.268 146.480, 368.947 146.201 C 366.543 145.999, 364.559 146.559, 362.813 147.933" stroke="none" fill="#f98325" fill-rule="evenodd"/><path d="M 268.806 67.400 C 263.138 70.311, 256.250 74.082, 253.500 75.780 C 246.030 80.390, 221.216 94.846, 215.500 97.917 C 209.636 101.068, 194.319 110.016, 184.825 115.838 C 181.153 118.089, 174.628 121.755, 170.325 123.985 C 166.021 126.215, 161.488 129.180, 160.250 130.575 C 155.953 135.419, 158.501 144.098, 164.559 145.256 C 167.520 145.822, 174.577 142.347, 190.777 132.345 C 196.429 128.855, 201.432 126, 201.895 126 C 202.357 126, 208.083 122.778, 214.618 118.840 C 228.026 110.760, 242.829 102.144, 251 97.664 C 254.025 96.005, 261.611 91.630, 267.859 87.942 L 279.217 81.236 296.859 91.291 C 306.561 96.822, 322.600 106.166, 332.500 112.056 C 342.400 117.946, 352.750 123.861, 355.500 125.202 C 358.250 126.542, 366.967 131.545, 374.871 136.319 C 391.064 146.100, 394.309 146.927, 398.548 142.354 C 401.388 139.290, 401.727 135.039, 399.413 131.507 C 398.540 130.175, 393.702 126.879, 388.663 124.182 C 383.623 121.485, 372.750 115.230, 364.500 110.281 C 356.250 105.333, 347.475 100.255, 345 98.997 C 340.526 96.723, 327.156 88.909, 309 77.956 C 299.693 72.341, 284.161 63.950, 280.806 62.725 C 279.775 62.348, 275.081 64.177, 268.806 67.400 M 250.448 155.275 C 250.179 155.976, 250.081 166.213, 250.229 178.025 L 250.500 199.500 263 199.500 L 275.500 199.500 275.770 177.571 C 275.978 160.696, 275.747 155.457, 274.770 154.837 C 272.558 153.433, 251.006 153.821, 250.448 155.275 M 283.200 155.200 C 281.503 156.897, 281.503 197.103, 283.200 198.800 C 283.996 199.596, 288.332 200, 296.093 200 C 305.833 200, 307.887 199.736, 308.393 198.418 C 309.600 195.273, 309.068 156.468, 307.800 155.200 C 307.011 154.411, 302.800 154, 295.500 154 C 288.200 154, 283.989 154.411, 283.200 155.200 M 92.923 331.923 C 90.476 334.370, 90 335.656, 90 339.819 C 90 344.261, 90.378 345.125, 93.535 347.896 C 95.479 349.603, 97.469 351, 97.958 351 C 99.797 351, 105 357.246, 105 359.454 C 105 361.963, 102.766 364.430, 101.570 363.241 C 101.159 362.834, 100.211 361.038, 99.463 359.250 C 98.294 356.458, 97.607 356, 94.586 356 C 89.954 356, 88.391 358.624, 90.042 363.626 C 91.521 368.108, 96.114 370.991, 101.782 370.996 C 110.500 371.004, 116 366.363, 116 359 C 116 354.209, 113.517 350.491, 108.284 347.446 C 100.673 343.017, 98.389 339.582, 101.394 337.088 C 103.098 335.673, 106 338.115, 106 340.964 C 106 344.526, 113.268 345.237, 115.079 341.853 C 115.923 340.276, 115.940 338.743, 115.144 336.086 C 113.647 331.091, 109.774 329, 102.019 329 C 96.530 329, 95.522 329.324, 92.923 331.923 M 132.975 331.565 C 131.503 335.437, 131.756 364.958, 133.288 368 C 134.884 371.170, 139.806 371.986, 141.701 369.395 C 142.441 368.382, 143 364.905, 143 361.309 L 143 355 146.500 355 L 150 355 150 361.800 C 150 369.237, 150.958 371, 155 371 C 159.730 371, 160 369.887, 160 350.382 C 160 340.362, 159.727 331.452, 159.393 330.582 C 158.667 328.689, 152.976 328.424, 151.200 330.200 C 150.502 330.898, 150 334.244, 150 338.200 L 150 345 146.500 345 L 143 345 143 338.200 C 143 330.483, 142.077 329, 137.275 329 C 134.626 329, 133.752 329.522, 132.975 331.565 M 184.539 332.250 C 180.788 340.783, 176.995 355.769, 176.998 362.050 C 177 369.294, 177.985 371, 182.165 371 C 185.365 371, 187 368.637, 187 364.011 C 187 360.912, 187.033 360.893, 191.750 361.195 L 196.500 361.500 196.824 365.487 C 197.185 369.915, 198.211 370.962, 202.215 370.985 C 208.161 371.018, 208.558 362.435, 203.401 345.393 C 198.552 329.372, 198.281 329, 191.461 329 C 186.223 329, 185.901 329.151, 184.539 332.250 M 224.035 330.934 C 222.667 333.491, 222.667 366.509, 224.035 369.066 C 225.310 371.447, 230.199 371.658, 232.429 369.429 C 233.555 368.302, 234 365.894, 234 360.929 C 234 354.287, 234.099 354, 236.393 354 C 239.280 354, 240 355.614, 240 362.082 C 240 367.911, 242.412 371, 246.965 371 C 250.584 371, 252.621 368.029, 251.035 365.066 C 250.466 364.002, 250 361.218, 250 358.880 C 250 355.947, 249.353 353.941, 247.914 352.409 C 245.906 350.271, 245.898 350.167, 247.715 349.590 C 250.868 348.590, 252.433 342.618, 250.940 337.285 C 249.069 330.603, 245.863 329.008, 234.285 329.004 C 226.196 329, 224.944 329.236, 224.035 330.934 M 270.200 330.200 C 268.661 331.739, 268.515 366.225, 270.035 369.066 C 270.941 370.759, 272.196 371, 280.101 371 C 290.240 371, 293 370.042, 293 366.522 C 293 363.269, 289.463 361, 284.394 361 C 280.924 361, 280.133 360.626, 279.630 358.750 C 278.547 354.708, 278.910 354, 282.066 354 C 286.434 354, 289 352.335, 289 349.500 C 289 346.805, 286.467 345, 282.682 345 C 280.988 345, 280.047 344.307, 279.630 342.750 C 278.662 339.136, 278.792 339.001, 283.250 338.985 C 288.662 338.966, 292.409 337.082, 292.827 334.170 C 293.447 329.845, 291.525 329, 281.078 329 C 274.884 329, 270.968 329.432, 270.200 330.200 M 314.190 331.026 C 309.300 334.007, 308 338.165, 308 350.820 C 308 360.494, 308.254 362.080, 310.280 365.088 C 313.216 369.444, 316.333 370.967, 322.349 370.985 C 331.902 371.014, 338.311 365.411, 337.772 357.500 C 337.528 353.915, 337.202 353.466, 334.629 353.172 C 329.731 352.612, 327 353.771, 327 356.408 C 327 357.712, 326.152 359.826, 325.115 361.107 C 323.482 363.123, 323.008 363.252, 321.583 362.069 C 320.202 360.923, 319.983 358.917, 320.219 349.613 C 320.474 339.565, 320.682 338.489, 322.434 338.153 C 324.722 337.715, 327 340.459, 327 343.656 C 327 347.387, 333.976 349.624, 336.800 346.800 C 339.970 343.630, 337.038 333.635, 332.080 330.706 C 327.930 328.255, 318.457 328.424, 314.190 331.026 M 360.657 331.750 C 357.007 338.950, 353 354.935, 353 362.299 C 353 370.301, 353.450 371, 358.607 371 C 361.231 371, 363 367.954, 363 363.435 C 363 361.216, 363.399 361, 367.500 361 C 371.601 361, 372 361.216, 372 363.435 C 372 368.233, 373.746 371, 376.775 371 C 381.073 371, 382 369.339, 382 361.641 C 382 356.441, 381.084 351.752, 378.376 343.091 C 376.382 336.716, 374.302 330.938, 373.753 330.250 C 373.178 329.530, 370.486 329, 367.403 329 C 362.570 329, 361.916 329.266, 360.657 331.750 M 400.200 330.200 C 398.508 331.892, 398.508 368.108, 400.200 369.800 C 401.833 371.433, 406.493 371.316, 407.912 369.606 C 408.548 368.839, 409.166 365.014, 409.284 361.106 C 409.484 354.501, 409.655 354, 411.714 354 C 414.654 354, 416 356.784, 416 362.863 C 416 369.112, 417.829 371.225, 422.874 370.803 L 426.500 370.500 426.192 363 C 425.977 357.764, 425.340 354.740, 424.084 352.982 C 422.321 350.517, 422.332 350.427, 424.642 348.685 C 426.644 347.175, 426.995 346.047, 426.968 341.203 C 426.935 335.243, 426.130 333.531, 422.027 330.704 C 419.002 328.619, 402.170 328.230, 400.200 330.200 M 446.200 330.200 C 444.508 331.892, 444.508 368.108, 446.200 369.800 C 448.108 371.708, 465.453 371.405, 467.429 369.429 C 471.462 365.395, 467.472 361, 459.777 361 L 455 361 455 357.500 C 455 354.261, 455.229 354, 458.066 354 C 462.434 354, 465 352.335, 465 349.500 C 465 346.665, 462.434 345, 458.066 345 C 455.326 345, 455 344.681, 455 342 C 455 339.362, 455.347 339, 457.875 339 C 466.349 339, 470.270 336.083, 468.124 331.374 C 467.093 329.110, 466.588 329, 457.221 329 C 450.916 329, 446.970 329.430, 446.200 330.200 M 234 342 C 234 346.333, 234.267 347, 236 347 C 238.313 347, 242 343.665, 242 341.571 C 242 339.363, 239.120 337, 236.429 337 C 234.181 337, 234 337.373, 234 342 M 409.715 337.750 C 409.493 338.163, 409.514 340.413, 409.761 342.750 C 410.233 347.218, 411.401 347.926, 415.066 345.965 C 417.258 344.792, 417.701 340.101, 415.800 338.200 C 414.475 336.875, 410.350 336.569, 409.715 337.750 M 190.671 343.043 C 190.309 344.945, 189.733 347.738, 189.390 349.250 C 188.813 351.798, 188.997 352, 191.902 352 C 194.820 352, 194.991 351.809, 194.364 349.250 C 193.993 347.738, 193.158 344.945, 192.509 343.043 L 191.329 339.587 190.671 343.043 M 366.072 345.212 C 365.420 347.570, 364.650 350.063, 364.360 350.750 C 363.998 351.610, 364.906 352, 367.270 352 L 370.707 352 369.371 346.851 C 368.637 344.019, 367.861 341.527, 367.646 341.313 C 367.432 341.099, 366.723 342.853, 366.072 345.212" stroke="none" fill="#1f9195" fill-rule="evenodd"/>
</svg>
