<svg xmlns="http://www.w3.org/2000/svg" width="559" height="447" viewBox="0 0 559 447" version="1.1"><path d="M 81.489 154.323 C 78.182 156.070, 74.132 158.435, 72.489 159.578 C 70.845 160.721, 63.758 164.996, 56.739 169.078 C 49.721 173.160, 42.071 177.569, 39.739 178.875 C 37.408 180.181, 31.116 183.692, 25.757 186.678 C 20.398 189.663, 15.523 193.022, 14.923 194.143 C 14.124 195.636, 14.151 196.950, 15.024 199.057 C 15.679 200.639, 17.070 202.205, 18.115 202.536 C 19.160 202.868, 21.249 202.522, 22.757 201.767 C 24.266 201.012, 28.875 198.441, 33 196.054 C 37.125 193.667, 42.300 190.485, 44.500 188.985 C 46.700 187.484, 52.100 184.449, 56.500 182.241 C 60.900 180.033, 70.102 174.801, 76.949 170.613 C 83.795 166.426, 89.829 163, 90.357 163 C 90.885 163, 97.208 166.548, 104.408 170.884 C 111.609 175.220, 120.650 180.420, 124.500 182.441 C 128.350 184.461, 137.125 189.483, 144 193.603 C 150.875 197.722, 157.573 201.533, 158.885 202.072 C 160.659 202.802, 161.876 202.656, 163.635 201.504 C 165.190 200.484, 166 198.995, 166 197.151 C 166 195.521, 165.059 193.489, 163.750 192.292 C 162.512 191.161, 157.900 188.211, 153.500 185.737 C 149.100 183.263, 142.575 179.608, 139 177.615 C 135.425 175.622, 125.750 169.947, 117.500 165.003 C 109.250 160.059, 100.125 154.886, 97.221 153.507 C 94.318 152.128, 90.943 151.033, 89.721 151.073 C 88.500 151.113, 84.795 152.576, 81.489 154.323 M 200.020 204.284 C 198.656 204.975, 196.975 206.656, 196.284 208.020 C 195.594 209.384, 195.023 211.556, 195.015 212.846 C 195.007 214.136, 195.745 216.453, 196.656 217.995 C 197.567 219.537, 200.242 222.018, 202.601 223.509 C 204.959 225, 207.625 227.033, 208.525 228.027 C 209.425 229.022, 210.012 230.880, 209.830 232.157 C 209.649 233.435, 208.688 234.634, 207.695 234.824 C 206.439 235.063, 205.535 234.229, 204.725 232.081 C 204.084 230.384, 202.726 228.731, 201.708 228.407 C 200.689 228.084, 198.763 228.094, 197.428 228.429 C 195.522 228.907, 195 229.693, 195 232.085 C 195 233.760, 195.463 235.997, 196.030 237.055 C 196.596 238.114, 198.374 239.659, 199.980 240.490 C 201.586 241.320, 204.745 242, 207 242 C 209.255 242, 212.400 241.328, 213.989 240.506 C 215.578 239.684, 217.581 238.009, 218.439 236.783 C 219.298 235.558, 220 232.871, 220 230.812 C 220 228.040, 219.183 226.139, 216.852 223.484 C 215.120 221.511, 212.463 219.256, 210.946 218.472 C 209.430 217.688, 207.472 216.329, 206.595 215.452 C 205.718 214.575, 205 212.989, 205 211.929 C 205 210.538, 205.698 210, 207.500 210 C 208.967 210, 210 210.574, 210 211.389 C 210 212.153, 210.815 213.785, 211.812 215.016 C 213.140 216.657, 214.208 217.069, 215.813 216.559 C 217.017 216.177, 218.470 214.990, 219.042 213.921 C 219.813 212.480, 219.671 211.109, 218.493 208.627 C 217.619 206.785, 215.779 204.765, 214.405 204.139 C 213.030 203.512, 209.790 203.007, 207.203 203.015 C 204.616 203.023, 201.384 203.594, 200.020 204.284 M 402.378 204.437 C 400.661 205.184, 398.524 206.842, 397.628 208.120 C 396.337 209.964, 396 213.005, 396 222.823 L 396 235.200 399.400 238.600 C 402.427 241.627, 403.392 242, 408.200 242 C 412.395 242, 414.546 241.387, 417.843 239.250 C 420.177 237.738, 422.327 235.542, 422.621 234.371 C 422.915 233.200, 423.009 230.950, 422.828 229.371 C 422.536 226.814, 422.066 226.465, 418.540 226.177 C 415.646 225.941, 414.232 226.329, 413.290 227.618 C 412.580 228.588, 412 230.373, 412 231.584 C 412 232.795, 411.268 234.067, 410.373 234.410 C 409.479 234.754, 408.129 234.522, 407.373 233.895 C 406.381 233.071, 406.004 230.086, 406.015 223.128 C 406.024 217.832, 406.415 212.893, 406.885 212.152 C 407.355 211.410, 408.545 210.960, 409.530 211.152 C 410.639 211.367, 411.747 213.024, 412.439 215.500 C 413.280 218.510, 414.131 219.582, 415.880 219.833 C 417.158 220.016, 419.283 219.895, 420.602 219.564 C 422.668 219.045, 422.995 218.376, 422.964 214.731 C 422.940 211.879, 422.206 209.624, 420.714 207.813 C 419.496 206.335, 417.233 204.648, 415.685 204.063 C 414.137 203.478, 411.212 203.018, 409.185 203.039 C 407.158 203.061, 404.095 203.690, 402.378 204.437 M 236.200 205.200 C 235.363 206.037, 235 211.422, 235 223 C 235 234.578, 235.363 239.963, 236.200 240.800 C 236.860 241.460, 238.588 242, 240.039 242 C 241.898 242, 243.023 241.246, 243.839 239.453 C 244.478 238.052, 245 234.677, 245 231.953 C 245 227.336, 245.170 227, 247.500 227 C 249.867 227, 250 227.296, 250 232.566 C 250 235.627, 250.466 239.002, 251.035 240.066 C 251.697 241.302, 253.127 242, 255 242 C 256.873 242, 258.303 241.302, 258.965 240.066 C 259.548 238.977, 260 231.518, 260 223 C 260 214.482, 259.548 207.023, 258.965 205.934 C 258.306 204.703, 256.873 204, 255.024 204 C 253.426 204, 251.759 204.563, 251.320 205.250 C 250.880 205.938, 250.291 208.975, 250.011 212 C 249.578 216.663, 249.196 217.500, 247.500 217.500 C 245.809 217.500, 245.407 216.632, 244.897 211.892 C 244.565 208.808, 243.976 205.771, 243.588 205.142 C 243.200 204.514, 241.649 204, 240.141 204 C 238.633 204, 236.860 204.540, 236.200 205.200 M 282.738 205.750 C 281.873 206.713, 279.982 212.332, 278.535 218.238 C 276.750 225.521, 276 230.990, 276.202 235.238 C 276.472 240.911, 276.717 241.531, 278.805 241.827 C 280.073 242.006, 281.760 241.614, 282.555 240.954 C 283.350 240.295, 284 238.469, 284 236.897 C 284 234.682, 284.563 233.897, 286.500 233.411 C 287.875 233.066, 290.098 233.059, 291.440 233.396 C 293.401 233.888, 293.941 234.743, 294.190 237.754 C 294.473 241.173, 294.784 241.527, 297.751 241.813 C 300.523 242.081, 301.160 241.713, 302.084 239.313 C 302.693 237.732, 302.897 234.311, 302.549 231.500 C 302.208 228.750, 300.551 222, 298.867 216.500 C 297.182 211, 295.343 205.938, 294.779 205.250 C 294.216 204.563, 291.630 204, 289.033 204 C 285.800 204, 283.814 204.552, 282.738 205.750 M 318.607 205.582 C 318.273 206.452, 318 214.497, 318 223.459 C 318 236.420, 318.295 240, 319.440 240.950 C 320.231 241.607, 322.126 241.999, 323.650 241.822 C 325.614 241.594, 326.622 240.772, 327.111 239 C 327.490 237.625, 327.845 234.556, 327.900 232.180 C 327.990 228.296, 328.227 227.893, 330.250 228.180 C 332.166 228.453, 332.577 229.260, 333.015 233.614 C 333.298 236.427, 334.141 239.465, 334.887 240.364 C 335.634 241.264, 337.485 242, 339 242 C 340.515 242, 342.326 241.312, 343.025 240.470 C 344.004 239.290, 344.032 238.366, 343.147 236.423 C 342.516 235.039, 342 232.663, 342 231.144 C 342 229.625, 341.389 227.547, 340.642 226.526 C 339.460 224.909, 339.601 224.205, 341.731 221.085 C 343.665 218.251, 344.067 216.662, 343.650 213.500 C 343.283 210.709, 342.193 208.669, 340.046 206.750 C 337.178 204.188, 336.363 204, 328.091 204 C 320.919 204, 319.097 204.304, 318.607 205.582 M 361.234 205.166 C 360.354 206.046, 360 211.165, 360 223 C 360 234.578, 360.363 239.963, 361.200 240.800 C 361.930 241.530, 365.481 242, 370.266 242 C 374.592 242, 379.002 241.534, 380.066 240.965 C 381.130 240.395, 382 239.101, 382 238.087 C 382 237.074, 381.371 235.723, 380.602 235.085 C 379.833 234.447, 377.021 233.820, 374.352 233.693 C 369.671 233.469, 369.489 233.346, 369.187 230.230 C 368.889 227.160, 369.043 227, 372.282 227 C 374.314 227, 376.358 226.262, 377.345 225.171 C 378.255 224.165, 379 222.885, 379 222.326 C 379 221.767, 378.177 220.565, 377.171 219.655 C 376.165 218.745, 373.915 218, 372.171 218 C 369.326 218, 369 217.697, 369 215.050 C 369 212.167, 369.128 212.093, 374.646 211.800 C 378.709 211.584, 380.601 211.009, 381.391 209.750 C 382.190 208.478, 382.189 207.522, 381.389 206.250 C 380.500 204.836, 378.576 204.445, 371.379 204.216 C 365.305 204.022, 362.076 204.324, 361.234 205.166 M 443.548 206.287 C 442.724 207.544, 440.688 213.155, 439.025 218.755 C 437.310 224.528, 436 231.245, 436 234.268 C 436 237.201, 436.540 240.140, 437.200 240.800 C 437.860 241.460, 439.612 242, 441.093 242 C 442.626 242, 444.047 241.319, 444.393 240.418 C 444.727 239.548, 445 237.799, 445 236.532 C 445 234.704, 445.662 234.130, 448.195 233.758 C 449.952 233.500, 452.178 233.495, 453.141 233.747 C 454.324 234.056, 454.990 235.387, 455.196 237.852 C 455.441 240.789, 455.949 241.564, 457.805 241.827 C 459.073 242.006, 460.760 241.614, 461.555 240.954 C 462.520 240.153, 463 237.770, 463 233.780 C 463 229.962, 461.851 223.958, 459.817 217.152 C 458.067 211.293, 456.212 205.938, 455.695 205.250 C 455.169 204.551, 452.616 204, 449.901 204 C 445.947 204, 444.768 204.424, 443.548 206.287 M 480.250 205.123 C 479.351 206.041, 479 211.068, 479 223 C 479 234.578, 479.363 239.963, 480.200 240.800 C 480.860 241.460, 482.345 242, 483.500 242 C 484.655 242, 486.140 241.460, 486.800 240.800 C 487.461 240.139, 488 236.963, 488 233.734 C 488 227.924, 488.027 227.870, 490.750 228.184 C 493.327 228.480, 493.532 228.865, 494.016 234.296 C 494.333 237.867, 495.101 240.453, 496.016 241.031 C 496.832 241.547, 498.682 241.976, 500.128 241.985 C 501.573 241.993, 503.250 241.404, 503.854 240.676 C 504.622 239.751, 504.665 237.587, 503.997 233.483 C 503.472 230.255, 502.380 226.951, 501.571 226.142 C 500.276 224.847, 500.393 224.322, 502.550 221.759 C 504.306 219.671, 505 217.647, 505 214.610 C 505 211.189, 504.410 209.809, 501.936 207.437 C 499.101 204.720, 498.219 204.475, 490.186 204.173 C 484.087 203.944, 481.128 204.227, 480.250 205.123 M 521.054 205.899 C 520.454 207.020, 520 214.117, 520 222.369 C 520 230.345, 520.439 238.024, 520.975 239.435 C 521.926 241.935, 522.186 242, 531.275 242 C 537.194 242, 541.038 241.562, 541.800 240.800 C 542.460 240.140, 543 238.845, 543 237.922 C 543 237, 542.275 235.643, 541.389 234.908 C 540.504 234.173, 537.691 233.491, 535.139 233.393 C 530.728 233.223, 530.485 233.062, 530.187 230.107 C 529.890 227.164, 530.058 227, 533.365 227 C 535.286 227, 537.564 226.293, 538.429 225.429 C 539.293 224.564, 540 223.284, 540 222.584 C 540 221.883, 539.177 220.565, 538.171 219.655 C 537.165 218.745, 534.915 218, 533.171 218 C 530.326 218, 530 217.697, 530 215.050 C 530 212.167, 530.128 212.093, 535.646 211.800 C 539.709 211.584, 541.601 211.009, 542.391 209.750 C 543.190 208.478, 543.189 207.522, 542.389 206.250 C 541.488 204.818, 539.544 204.448, 531.698 204.214 C 523.019 203.956, 522.008 204.116, 521.054 205.899 M 72.667 208.667 C 72.300 209.033, 72 215.018, 72 221.967 C 72 230.459, 72.393 234.993, 73.200 235.800 C 73.871 236.471, 77.089 237, 80.500 237 C 83.911 237, 87.129 236.471, 87.800 235.800 C 88.597 235.003, 89 230.663, 89 222.882 C 89 216.437, 88.727 210.452, 88.393 209.582 C 87.917 208.341, 86.227 208, 80.560 208 C 76.585 208, 73.033 208.300, 72.667 208.667 M 92.705 208.628 C 92.317 209.016, 92 215.018, 92 221.967 C 92 230.459, 92.393 234.993, 93.200 235.800 C 93.874 236.474, 97.106 237, 100.578 237 C 104.630 237, 107.152 236.522, 107.908 235.611 C 108.682 234.678, 108.969 229.989, 108.781 221.361 L 108.500 208.500 100.955 208.212 C 96.805 208.053, 93.093 208.241, 92.705 208.628 M 328 215.500 C 328 218.485, 328.430 220, 329.277 220 C 329.980 220, 331.555 219.299, 332.777 218.443 C 334 217.587, 335 216.102, 335 215.143 C 335 214.184, 334.460 212.860, 333.800 212.200 C 333.140 211.540, 331.565 211, 330.300 211 C 328.241 211, 328 211.471, 328 215.500 M 488 215.031 C 488 217.594, 488.518 219.262, 489.422 219.608 C 490.204 219.908, 491.779 219.654, 492.922 219.042 C 494.282 218.314, 495 216.942, 495 215.072 C 495 213.388, 494.350 211.965, 493.418 211.607 C 492.548 211.273, 490.973 211, 489.918 211 C 488.344 211, 488 211.724, 488 215.031 M 287.236 217.409 C 286.556 219.950, 286 222.697, 286 223.514 C 286 224.507, 287.022 225, 289.079 225 C 292.030 225, 292.130 224.864, 291.462 221.750 C 291.078 219.963, 290.249 217.215, 289.618 215.644 L 288.471 212.789 287.236 217.409 M 448.673 216.883 C 448.356 218.469, 447.801 220.944, 447.440 222.383 C 446.837 224.785, 447.038 225, 449.892 225 C 451.601 225, 453 224.524, 453 223.943 C 453 223.361, 452.497 220.886, 451.881 218.443 C 451.266 215.999, 450.422 214, 450.006 214 C 449.590 214, 448.990 215.298, 448.673 216.883" stroke="none" fill="#209095" fill-rule="evenodd"/><path d="M 81.500 173.004 C 77.100 175.717, 70.990 179.225, 67.922 180.799 C 64.854 182.374, 58.233 186.034, 53.209 188.934 C 48.185 191.833, 43.570 194.813, 42.954 195.555 C 42.339 196.297, 41.990 197.708, 42.179 198.690 C 42.368 199.673, 43.226 200.612, 44.085 200.778 C 44.944 200.943, 51.913 197.386, 59.573 192.873 C 67.233 188.360, 76.425 183.103, 80 181.192 C 83.575 179.280, 87.317 177.154, 88.317 176.467 C 89.877 175.394, 91.638 176.067, 100.817 181.245 C 106.692 184.560, 116.808 190.390, 123.295 194.201 C 129.782 198.011, 135.857 200.982, 136.795 200.801 C 137.844 200.599, 138.500 199.538, 138.500 198.044 C 138.500 196.066, 136.920 194.658, 130 190.465 C 125.325 187.632, 117.450 183.166, 112.500 180.541 C 107.550 177.915, 102.825 175.220, 102 174.553 C 101.175 173.885, 98.395 172.137, 95.822 170.669 C 93.249 169.201, 90.774 168.016, 90.322 168.036 C 89.870 168.056, 85.900 170.291, 81.500 173.004 M 33.250 202.662 C 32.563 202.940, 32 204.254, 32 205.583 C 32 207.244, 31.437 208, 30.200 208 C 29.210 208, 27.860 208.540, 27.200 209.200 C 26.540 209.860, 26 211.847, 26 213.617 C 26 215.386, 25.444 217.019, 24.764 217.245 C 23.841 217.553, 23.602 221.307, 23.818 232.079 C 23.977 240.010, 24.775 250.768, 25.593 255.984 C 26.776 263.537, 27.922 266.998, 31.219 272.984 C 33.495 277.118, 36.403 282.489, 37.679 284.919 C 38.956 287.350, 40 290.288, 40 291.447 C 40 292.606, 40.701 294.555, 41.557 295.777 C 43.016 297.861, 43.852 298, 54.950 298 C 64.820 298, 66.887 297.737, 67.393 296.418 C 67.727 295.548, 68 291.519, 68 287.465 C 68 283.411, 68.519 278.955, 69.154 277.562 C 69.788 276.169, 72.180 274.123, 74.470 273.015 C 76.759 271.907, 80.177 270.994, 82.066 270.986 C 83.955 270.979, 86.513 270.701, 87.750 270.370 C 89.222 269.975, 90 269.003, 90 267.558 C 90 266.343, 88.836 264.258, 87.413 262.924 C 84.887 260.556, 84.434 260.500, 67.934 260.500 L 51.042 260.500 48.001 257.461 C 45.328 254.789, 44.843 253.400, 43.988 245.961 C 43.453 241.307, 43.012 231.290, 43.008 223.700 C 43.002 213.360, 42.621 209.169, 41.490 206.980 C 40.659 205.374, 39.114 203.596, 38.055 203.030 C 36.997 202.463, 35.764 202.036, 35.316 202.079 C 34.867 202.122, 33.938 202.385, 33.250 202.662 M 141.588 204.322 C 140.237 205.672, 138.897 208.289, 138.609 210.138 C 138.320 211.987, 137.874 221.150, 137.617 230.500 C 137.360 239.850, 136.645 249.187, 136.028 251.248 C 135.411 253.310, 133.841 256.235, 132.539 257.748 L 130.171 260.500 113.172 260.500 C 96.558 260.500, 96.114 260.555, 93.586 262.924 C 92.164 264.258, 91 266.395, 91 267.674 C 91 268.953, 91.563 270.030, 92.250 270.067 C 92.938 270.105, 95.047 270.335, 96.939 270.580 C 98.830 270.824, 101.980 271.472, 103.939 272.018 C 105.897 272.565, 108.625 273.883, 110 274.948 C 112.294 276.725, 112.529 277.653, 112.850 286.192 C 113.042 291.311, 113.660 296.063, 114.222 296.750 C 114.930 297.615, 118.701 298, 126.467 298 C 135.907 298, 137.933 297.722, 139.218 296.250 C 140.059 295.288, 141.033 292.899, 141.383 290.942 C 141.732 288.985, 144.284 283.433, 147.052 278.605 C 149.820 273.777, 152.715 268.178, 153.485 266.163 C 154.255 264.149, 155.365 259.239, 155.951 255.253 C 156.537 251.268, 157.284 241.259, 157.610 233.011 C 158.132 219.831, 158.009 217.941, 156.602 217.401 C 155.596 217.015, 155 215.599, 155 213.593 C 155 211.837, 154.460 209.860, 153.800 209.200 C 153.140 208.540, 151.820 208, 150.866 208 C 149.719 208, 149.026 207.071, 148.816 205.250 C 148.591 203.290, 147.860 202.409, 146.271 202.183 C 144.922 201.991, 143.074 202.835, 141.588 204.322" stroke="none" fill="#f78327" fill-rule="evenodd"/></svg>